<?xml version="1.0" standalone="no"?>
<!DOCTYPE svg PUBLIC "-//W3C//DTD SVG 20010904//EN"
 "http://www.w3.org/TR/2001/REC-SVG-20010904/DTD/svg10.dtd">
<svg version="1.0" xmlns="http://www.w3.org/2000/svg"
 width="153.000000pt" height="153.000000pt" viewBox="0 0 153.000000 153.000000"
 preserveAspectRatio="xMidYMid meet">
<metadata>
Created by potrace 1.14, written by Peter Selinger 2001-2017
</metadata>
<g transform="translate(0.000000,153.000000) scale(0.100000,-0.100000)"
fill="#000000" stroke="none">
<path d="M465 1511 c-114 -30 -217 -117 -270 -228 -24 -50 -28 -71 -29 -153
-1 -71 4 -106 17 -140 l18 -44 -28 -20 c-46 -33 -83 -76 -111 -130 -24 -45
-27 -62 -26 -141 0 -99 17 -147 75 -218 71 -87 211 -131 323 -103 22 5 28 1
47 -36 64 -126 161 -212 298 -266 56 -21 82 -25 176 -26 71 0 124 5 150 14 22
8 42 15 45 15 24 5 105 53 144 85 85 70 158 182 181 275 15 62 16 71 16 125 2
302 -209 525 -521 549 -12 1 -15 15 -14 68 1 144 -84 276 -223 345 -53 26 -77
31 -150 34 -49 2 -101 0 -118 -5z m187 -720 c11 -24 16 -47 11 -52 -10 -10
-130 -17 -163 -9 -32 8 -29 28 17 94 59 85 54 82 86 45 16 -19 38 -54 49 -78z"/>
</g>
</svg>
