<?xml version="1.0" standalone="no"?>
<!DOCTYPE svg PUBLIC "-//W3C//DTD SVG 20010904//EN"
 "http://www.w3.org/TR/2001/REC-SVG-20010904/DTD/svg10.dtd">
<svg version="1.0" xmlns="http://www.w3.org/2000/svg"
 width="1714.000000pt" height="1714.000000pt" viewBox="0 0 1714.000000 1714.000000"
 preserveAspectRatio="xMidYMid meet">
<metadata>
Created by potrace 1.14, written by Peter Selinger 2001-2017
</metadata>
<g transform="translate(0.000000,1714.000000) scale(0.100000,-0.100000)"
fill="#000000" stroke="none">
<path d="M10240 12335 l0 -355 1405 0 1405 0 0 355 0 355 -1405 0 -1405 0 0
-355z"/>
<path d="M2620 12330 l0 -350 590 0 590 0 0 -1530 0 -1530 385 0 385 0 0 1530
0 1530 590 0 590 0 0 350 0 350 -1565 0 -1565 0 0 -350z"/>
<path d="M6430 10800 l0 -1880 380 0 380 0 0 805 0 805 795 0 795 0 0 -805 0
-805 385 0 385 0 0 1135 0 1135 -1180 0 -1180 0 0 745 0 745 -380 0 -380 0 0
-1880z"/>
<path d="M10240 10045 l0 -1135 1405 0 1405 0 0 350 0 350 -1050 0 -1050 0 0
435 0 435 1050 0 1050 0 0 350 0 350 -1405 0 -1405 0 0 -1135z"/>
<path d="M3905 8304 c-604 -50 -1029 -274 -1307 -688 -265 -397 -376 -1004
-302 -1660 53 -476 211 -855 468 -1124 248 -259 562 -406 966 -453 149 -17
473 -7 620 20 283 50 514 154 640 286 l35 36 5 -133 5 -133 378 -3 377 -2 0
1020 0 1020 -830 0 -830 0 0 -305 0 -305 450 0 450 0 0 -335 0 -335 -930 0
-930 0 0 1132 0 1131 317 -6 c174 -4 581 -7 905 -7 l588 0 0 -255 0 -255 431
0 431 0 -6 48 c-11 74 -62 264 -92 339 -211 533 -644 855 -1274 948 -111 16
-457 28 -565 19z"/>
<path d="M6430 6335 l0 -1885 380 0 380 0 0 715 0 715 755 0 755 0 0 -715 0
-715 396 0 395 0 -4 568 c-3 529 -5 573 -24 657 -54 236 -163 414 -319 521
-50 35 -66 54 -45 54 18 0 173 154 216 214 130 184 181 376 172 653 -5 174
-27 282 -86 425 -115 275 -376 501 -696 602 -235 74 -260 76 -1332 76 l-943 0
0 -1885z m2270 695 l0 -500 -755 0 -755 0 0 500 0 500 755 0 755 0 0 -500z"/>
<path d="M10240 6335 l0 -1885 350 0 350 0 0 1885 0 1885 -350 0 -350 0 0
-1885z"/>
<path d="M11642 6339 l3 -1881 745 1 c955 2 1149 12 1424 71 283 62 540 195
687 358 248 274 349 638 366 1312 20 846 -108 1333 -430 1636 -227 214 -557
334 -1022 374 -69 5 -474 10 -948 10 l-827 0 2 -1881z m2418 1 l0 -1180 -825
0 -825 0 0 1180 0 1180 825 0 825 0 0 -1180z"/>
</g>
</svg>
