<svg xmlns="http://www.w3.org/2000/svg" xmlns:xlink="http://www.w3.org/1999/xlink" width="500" zoomAndPan="magnify" viewBox="0 0 375 374.999991" height="500" preserveAspectRatio="xMidYMid meet" version="1.0"><path fill="#ffffff" d="M 218.011719 80.050781 L 157.007812 80.050781 C 156.742188 80.050781 156.480469 80.074219 156.21875 80.089844 C 151.765625 80.199219 143.125 81.640625 134.28125 89.949219 C 113.925781 109.074219 105.582031 152.597656 109.488281 219.304688 C 109.878906 226.019531 115.445312 231.199219 122.085938 231.199219 C 122.332031 231.199219 122.582031 231.191406 122.835938 231.175781 C 129.796875 230.769531 135.113281 224.792969 134.707031 217.828125 C 131.460938 162.34375 137.746094 132.769531 144.804688 118.089844 L 144.804688 187.945312 L 131.335938 353.085938 C 130.460938 363.835938 138.464844 373.253906 149.207031 374.128906 C 159.953125 375.003906 169.375 367.007812 170.25 356.261719 L 181.980469 212.445312 L 193.039062 212.445312 L 204.765625 356.261719 C 205.640625 367.007812 215.066406 375.003906 225.8125 374.128906 C 236.554688 373.253906 244.558594 363.835938 243.683594 353.085938 L 230.214844 187.941406 L 230.214844 118.191406 C 236.800781 131.652344 243.710938 159.773438 240.3125 217.828125 C 239.90625 224.792969 245.222656 230.769531 252.1875 231.175781 C 252.4375 231.191406 252.6875 231.199219 252.9375 231.199219 C 259.574219 231.199219 265.140625 226.019531 265.535156 219.304688 C 269.433594 152.597656 261.089844 109.074219 240.734375 89.949219 C 231.871094 81.621094 223.210938 80.191406 218.769531 80.089844 C 218.519531 80.074219 218.265625 80.050781 218.011719 80.050781 Z M 218.011719 80.050781 " fill-opacity="1" fill-rule="nonzero"/><path fill="#ffffff" d="M 223.035156 35.527344 C 223.035156 36.691406 222.980469 37.851562 222.863281 39.007812 C 222.75 40.167969 222.582031 41.316406 222.351562 42.457031 C 222.125 43.597656 221.84375 44.726562 221.507812 45.839844 C 221.167969 46.953125 220.777344 48.046875 220.332031 49.121094 C 219.886719 50.195312 219.390625 51.246094 218.839844 52.273438 C 218.292969 53.300781 217.695312 54.296875 217.046875 55.265625 C 216.402344 56.230469 215.710938 57.164062 214.972656 58.0625 C 214.234375 58.964844 213.453125 59.824219 212.628906 60.648438 C 211.808594 61.46875 210.945312 62.25 210.046875 62.988281 C 209.148438 63.726562 208.214844 64.417969 207.246094 65.066406 C 206.28125 65.710938 205.28125 66.308594 204.257812 66.859375 C 203.230469 67.40625 202.179688 67.902344 201.105469 68.347656 C 200.03125 68.792969 198.9375 69.183594 197.820312 69.523438 C 196.707031 69.859375 195.582031 70.144531 194.441406 70.371094 C 193.300781 70.597656 192.148438 70.765625 190.992188 70.882812 C 189.832031 70.996094 188.671875 71.050781 187.507812 71.050781 C 186.347656 71.050781 185.183594 70.996094 184.027344 70.882812 C 182.871094 70.765625 181.71875 70.597656 180.578125 70.371094 C 179.4375 70.144531 178.308594 69.859375 177.195312 69.523438 C 176.082031 69.183594 174.988281 68.792969 173.914062 68.347656 C 172.839844 67.902344 171.789062 67.40625 170.761719 66.859375 C 169.734375 66.308594 168.738281 65.710938 167.773438 65.066406 C 166.804688 64.417969 165.871094 63.726562 164.972656 62.988281 C 164.074219 62.25 163.210938 61.46875 162.386719 60.648438 C 161.566406 59.824219 160.785156 58.964844 160.046875 58.0625 C 159.308594 57.164062 158.617188 56.230469 157.96875 55.261719 C 157.324219 54.296875 156.726562 53.300781 156.179688 52.273438 C 155.628906 51.246094 155.132812 50.195312 154.6875 49.121094 C 154.242188 48.046875 153.851562 46.953125 153.511719 45.839844 C 153.175781 44.726562 152.894531 43.597656 152.664062 42.457031 C 152.4375 41.316406 152.269531 40.167969 152.152344 39.007812 C 152.039062 37.851562 151.984375 36.691406 151.984375 35.527344 C 151.984375 34.363281 152.039062 33.203125 152.152344 32.042969 C 152.269531 30.886719 152.4375 29.738281 152.664062 28.59375 C 152.894531 27.453125 153.175781 26.328125 153.511719 25.214844 C 153.851562 24.101562 154.242188 23.007812 154.6875 21.929688 C 155.132812 20.855469 155.628906 19.804688 156.179688 18.78125 C 156.726562 17.753906 157.324219 16.757812 157.96875 15.789062 C 158.617188 14.820312 159.308594 13.886719 160.046875 12.988281 C 160.785156 12.089844 161.566406 11.226562 162.386719 10.40625 C 163.210938 9.582031 164.074219 8.800781 164.972656 8.0625 C 165.871094 7.324219 166.804688 6.632812 167.773438 5.988281 C 168.738281 5.339844 169.734375 4.742188 170.761719 4.195312 C 171.789062 3.644531 172.839844 3.148438 173.914062 2.703125 C 174.988281 2.257812 176.082031 1.867188 177.195312 1.53125 C 178.308594 1.191406 179.4375 0.910156 180.578125 0.683594 C 181.71875 0.457031 182.871094 0.285156 184.027344 0.171875 C 185.183594 0.0585938 186.347656 0 187.507812 0 C 188.671875 0 189.832031 0.0585938 190.992188 0.171875 C 192.148438 0.285156 193.300781 0.457031 194.441406 0.683594 C 195.582031 0.910156 196.707031 1.191406 197.820312 1.53125 C 198.9375 1.867188 200.03125 2.257812 201.105469 2.703125 C 202.179688 3.148438 203.230469 3.644531 204.257812 4.195312 C 205.28125 4.742188 206.28125 5.339844 207.246094 5.988281 C 208.214844 6.632812 209.148438 7.324219 210.046875 8.0625 C 210.945312 8.800781 211.808594 9.582031 212.628906 10.40625 C 213.453125 11.226562 214.234375 12.089844 214.972656 12.988281 C 215.710938 13.886719 216.402344 14.820312 217.046875 15.789062 C 217.695312 16.757812 218.292969 17.753906 218.839844 18.78125 C 219.390625 19.804688 219.886719 20.855469 220.332031 21.929688 C 220.777344 23.007812 221.167969 24.101562 221.507812 25.214844 C 221.84375 26.328125 222.125 27.453125 222.351562 28.59375 C 222.582031 29.738281 222.75 30.886719 222.863281 32.042969 C 222.980469 33.203125 223.035156 34.363281 223.035156 35.527344 Z M 223.035156 35.527344 " fill-opacity="1" fill-rule="nonzero"/></svg>